<svg id="visual" viewBox="0 0 900 600" width="900" height="600" xmlns="http://www.w3.org/2000/svg" xmlns:xlink="http://www.w3.org/1999/xlink" version="1.1"><rect x="0" y="0" width="900" height="600" fill="#e8ebee"></rect><defs><linearGradient id="grad1_0" x1="33.3%" y1="0%" x2="100%" y2="100%"><stop offset="20%" stop-color="#dddddd" stop-opacity="1"></stop><stop offset="80%" stop-color="#dddddd" stop-opacity="1"></stop></linearGradient></defs><defs><linearGradient id="grad1_1" x1="33.3%" y1="0%" x2="100%" y2="100%"><stop offset="20%" stop-color="#dddddd" stop-opacity="1"></stop><stop offset="80%" stop-color="#e8ebee" stop-opacity="1"></stop></linearGradient></defs><defs><linearGradient id="grad2_0" x1="0%" y1="0%" x2="66.7%" y2="100%"><stop offset="20%" stop-color="#dddddd" stop-opacity="1"></stop><stop offset="80%" stop-color="#dddddd" stop-opacity="1"></stop></linearGradient></defs><defs><linearGradient id="grad2_1" x1="0%" y1="0%" x2="66.7%" y2="100%"><stop offset="20%" stop-color="#e8ebee" stop-opacity="1"></stop><stop offset="80%" stop-color="#dddddd" stop-opacity="1"></stop></linearGradient></defs><g transform="translate(900, 0)"><path d="M0 486.7C-64.5 478.8 -129 470.8 -184.5 445.3C-239.9 419.8 -286.3 376.8 -332.3 332.3C-378.4 287.9 -424 241.9 -449.7 186.3C-475.4 130.6 -481.1 65.3 -486.7 0L0 0Z" fill="#e2e4e5"></path><path d="M0 243.4C-32.3 239.4 -64.5 235.4 -92.2 222.7C-120 209.9 -143.2 188.4 -166.2 166.2C-189.2 143.9 -212 121 -224.8 93.1C-237.7 65.3 -240.5 32.7 -243.4 0L0 0Z" fill="#dddddd"></path></g><g transform="translate(0, 600)"><path d="M0 -486.7C56.8 -463.1 113.7 -439.5 173.7 -419.4C233.8 -399.4 297 -382.8 344.2 -344.2C391.3 -305.5 422.4 -244.7 443.5 -183.7C464.5 -122.6 475.6 -61.3 486.7 0L0 0Z" fill="#e2e4e5"></path><path d="M0 -243.4C28.4 -231.6 56.8 -219.8 86.9 -209.7C116.9 -199.7 148.5 -191.4 172.1 -172.1C195.7 -152.8 211.2 -122.4 221.7 -91.8C232.3 -61.3 237.8 -30.7 243.4 0L0 0Z" fill="#dddddd"></path></g></svg>