<?xml version="1.0"?><svg xmlns="http://www.w3.org/2000/svg"  viewBox="0 0 24 24" width="50px" height="50px">    <path d="M 4.0019531 3 C 2.8989531 3 2.0019531 3.897 2.0019531 5 L 2.0019531 17 C 2.0019531 18.103 2.8989531 19 4.0019531 19 L 18.001953 19 L 22.001953 23 L 21.990234 4.9980469 C 21.989234 3.8950469 21.092234 3 19.990234 3 L 4.0019531 3 z M 4.0019531 5 L 19.992188 5 L 19.998047 18.169922 L 18.830078 17 L 4.0019531 17 L 4.0019531 5 z M 15.410156 6.0136719 L 15.410156 7.0390625 L 13 7.0390625 L 13 8.3515625 L 17.714844 8.3515625 C 17.714844 10.881562 15.625 12.421875 15.625 12.421875 C 15.625 12.421875 14.205078 11.627531 14.205078 10.019531 L 13 10.019531 C 13 11.987531 14.259766 12.953125 14.259766 12.953125 C 14.259766 12.953125 13.703 13.65625 13 13.65625 L 13 15 C 14.374 15 15.570313 13.890625 15.570312 13.890625 C 15.570312 13.890625 16.430766 15 18.009766 15 L 18.009766 13.65625 C 17.413766 13.65625 17.070312 12.982422 17.070312 12.982422 C 17.070312 12.982422 19 11.209562 19 8.3515625 L 19 7.0390625 L 16.589844 7.0390625 L 16.589844 6.0136719 L 15.410156 6.0136719 z M 7.7890625 7 L 5 15 L 6.640625 15 L 7.1601562 13.34375 L 9.8417969 13.34375 L 10.359375 15 L 12 15 L 9.2109375 7 L 7.7890625 7 z M 8.5 9.03125 L 9.4296875 12.03125 L 7.5703125 12.03125 L 8.5 9.03125 z"/></svg>