<svg xmlns="http://www.w3.org/2000/svg"  viewBox="0 0 50 50" width="50px" height="50px"><path d="M 5 2 C 2.2504839 2 0 4.2504839 0 7 L 0 31 C 0 33.749516 2.2504839 36 5 36 L 42 36 L 42 6 L 9.796875 6 C 9.3172207 3.7418136 7.3954602 2 5 2 z M 5 4 C 6.6684839 4 8 5.3315161 8 7 L 8 27.029297 C 7.1609431 26.392748 6.1279363 26 5 26 C 3.8720637 26 2.8390569 26.392748 2 27.029297 L 2 7 C 2 5.3315161 3.3315161 4 5 4 z M 10 8 L 40 8 L 40 34 L 5 34 C 3.3315161 34 2 32.668484 2 31 C 2 29.331516 3.3315161 28 5 28 C 6.6684839 28 8 29.331516 8 31 L 10 31 L 10 8 z M 44 10 A 1.0001 1.0001 0 1 0 44 12 L 44 38 L 9 38 C 8.2478825 38 7.5758531 37.717643 7.0390625 37.248047 A 1.0001 1.0001 0 1 0 5.7207031 38.751953 C 6.5899125 39.512357 7.7381175 40 9 40 L 46 40 L 46 10 L 44 10 z M 29 13 L 31.236328 15.236328 L 26.005859 20.183594 L 21.005859 14.933594 L 13.947266 21.605469 L 15.322266 23.060547 L 20.931641 17.755859 L 25.931641 23.005859 L 32.652344 16.652344 L 35 19 L 35 13 L 29 13 z M 48 14 A 1.0001 1.0001 0 1 0 48 16 L 48 42 L 13 42 C 12.247882 42 11.575854 41.717643 11.039062 41.248047 A 1.0001 1.0001 0 1 0 9.7207031 42.751953 C 10.589913 43.512357 11.738118 44 13 44 L 50 44 L 50 14 L 48 14 z M 14 27 L 14 29 L 35 29 L 35 27 L 14 27 z"/></svg>