<svg xmlns="http://www.w3.org/2000/svg"  viewBox="0 0 50 50" width="50px" height="50px"><path d="M 24.875 7 C 24.765625 7.015625 24.660156 7.046875 24.5625 7.09375 L 0.5625 19.09375 C 0.210938 19.257813 -0.015625 19.613281 -0.015625 20 C -0.015625 20.386719 0.210938 20.742188 0.5625 20.90625 L 4 22.625 L 4 37.1875 C 2.84375 37.605469 2 38.707031 2 40 C 2 40.578125 2.195313 41.019531 2.40625 41.5 C 2.617188 41.980469 2.863281 42.453125 3.125 42.90625 C 3.648438 43.808594 4.1875 44.5625 4.1875 44.5625 L 5 45.75 L 5.8125 44.5625 C 5.8125 44.5625 6.351563 43.808594 6.875 42.90625 C 7.136719 42.453125 7.382813 41.980469 7.59375 41.5 C 7.804688 41.019531 8 40.578125 8 40 C 8 38.707031 7.15625 37.605469 6 37.1875 L 6 23.625 L 10 25.625 L 10 29 C 10 29.609375 10.402344 29.996094 10.71875 30.21875 C 11.035156 30.441406 11.375 30.582031 11.78125 30.71875 C 12.59375 30.992188 13.667969 31.21875 14.96875 31.40625 C 17.574219 31.777344 21.09375 32 25 32 C 28.90625 32 32.425781 31.777344 35.03125 31.40625 C 36.332031 31.21875 37.40625 30.992188 38.21875 30.71875 C 38.625 30.582031 38.964844 30.441406 39.28125 30.21875 C 39.597656 29.996094 40 29.609375 40 29 L 40 25.625 L 49.4375 20.90625 C 49.789063 20.742188 50.015625 20.386719 50.015625 20 C 50.015625 19.613281 49.789063 19.257813 49.4375 19.09375 L 25.4375 7.09375 C 25.261719 7.007813 25.066406 6.976563 24.875 7 Z M 25 9.125 L 46.75 20 L 40 23.375 L 40 22 C 40 21.386719 39.597656 21 39.28125 20.78125 C 38.964844 20.5625 38.625 20.417969 38.21875 20.28125 C 37.402344 20.007813 36.335938 19.78125 35.03125 19.59375 C 32.421875 19.222656 28.890625 19 25 19 C 21.109375 19 17.578125 19.222656 14.96875 19.59375 C 13.664063 19.78125 12.597656 20.007813 11.78125 20.28125 C 11.375 20.417969 11.035156 20.5625 10.71875 20.78125 C 10.402344 21 10 21.386719 10 22 L 10 23.375 L 3.25 20 Z M 25 21 C 28.8125 21 32.28125 21.210938 34.75 21.5625 C 35.984375 21.738281 36.957031 21.953125 37.5625 22.15625 C 37.785156 22.230469 37.902344 22.292969 38 22.34375 L 38 27.21875 C 37.214844 26.972656 36.230469 26.765625 35.03125 26.59375 C 32.425781 26.222656 28.90625 26 25 26 C 21.09375 26 17.574219 26.222656 14.96875 26.59375 C 13.769531 26.765625 12.785156 26.972656 12 27.21875 L 12 22.34375 C 12.097656 22.292969 12.214844 22.230469 12.4375 22.15625 C 13.042969 21.953125 14.015625 21.738281 15.25 21.5625 C 17.71875 21.210938 21.1875 21 25 21 Z M 25 28 C 28.828125 28 32.285156 28.210938 34.75 28.5625 C 35.65625 28.691406 36.257813 28.847656 36.84375 29 C 36.257813 29.152344 35.65625 29.308594 34.75 29.4375 C 32.285156 29.789063 28.828125 30 25 30 C 21.171875 30 17.714844 29.789063 15.25 29.4375 C 14.34375 29.308594 13.742188 29.152344 13.15625 29 C 13.742188 28.847656 14.34375 28.691406 15.25 28.5625 C 17.714844 28.210938 21.171875 28 25 28 Z M 5 39 C 5.554688 39 6 39.445313 6 40 C 6 39.972656 5.945313 40.316406 5.78125 40.6875 C 5.617188 41.058594 5.363281 41.496094 5.125 41.90625 C 5.058594 42.023438 5.066406 42.015625 5 42.125 C 4.933594 42.015625 4.941406 42.023438 4.875 41.90625 C 4.636719 41.496094 4.382813 41.058594 4.21875 40.6875 C 4.054688 40.316406 4 39.972656 4 40 C 4 39.445313 4.445313 39 5 39 Z"/></svg>