<svg xmlns="http://www.w3.org/2000/svg" xmlns:xlink="http://www.w3.org/1999/xlink" viewBox="0,0,256,256" width="50px" height="50px" fill-rule="nonzero"><g fill="#f7f6f6" fill-rule="nonzero" stroke="none" stroke-width="1" stroke-linecap="butt" stroke-linejoin="miter" stroke-miterlimit="10" stroke-dasharray="" stroke-dashoffset="0" font-family="none" font-weight="none" font-size="none" text-anchor="none" style="mix-blend-mode: normal"><g transform="scale(5.12,5.12)"><path d="M24.875,7c-0.10937,0.01563 -0.21484,0.04688 -0.3125,0.09375l-24,12c-0.35156,0.16406 -0.57812,0.51953 -0.57812,0.90625c0,0.38672 0.22656,0.74219 0.57813,0.90625l3.4375,1.71875v14.5625c-1.15625,0.41797 -2,1.51953 -2,2.8125c0,0.57813 0.19531,1.01953 0.40625,1.5c0.21094,0.48047 0.45703,0.95313 0.71875,1.40625c0.52344,0.90234 1.0625,1.65625 1.0625,1.65625l0.8125,1.1875l0.8125,-1.1875c0,0 0.53906,-0.75391 1.0625,-1.65625c0.26172,-0.45312 0.50781,-0.92578 0.71875,-1.40625c0.21094,-0.48047 0.40625,-0.92187 0.40625,-1.5c0,-1.29297 -0.84375,-2.39453 -2,-2.8125v-13.5625l4,2v3.375c0,0.60938 0.40234,0.99609 0.71875,1.21875c0.31641,0.22266 0.65625,0.36328 1.0625,0.5c0.8125,0.27344 1.88672,0.5 3.1875,0.6875c2.60547,0.37109 6.125,0.59375 10.03125,0.59375c3.90625,0 7.42578,-0.22266 10.03125,-0.59375c1.30078,-0.1875 2.375,-0.41406 3.1875,-0.6875c0.40625,-0.13672 0.74609,-0.27734 1.0625,-0.5c0.31641,-0.22266 0.71875,-0.60937 0.71875,-1.21875v-3.375l9.4375,-4.71875c0.35156,-0.16406 0.57813,-0.51953 0.57813,-0.90625c0,-0.38672 -0.22656,-0.74219 -0.57812,-0.90625l-24,-12c-0.17578,-0.08594 -0.37109,-0.11719 -0.5625,-0.09375zM25,9.125l21.75,10.875l-6.75,3.375v-1.375c0,-0.61328 -0.40234,-1 -0.71875,-1.21875c-0.31641,-0.21875 -0.65625,-0.36328 -1.0625,-0.5c-0.81641,-0.27344 -1.88281,-0.5 -3.1875,-0.6875c-2.60937,-0.37109 -6.14062,-0.59375 -10.03125,-0.59375c-3.89062,0 -7.42187,0.22266 -10.03125,0.59375c-1.30469,0.1875 -2.37109,0.41406 -3.1875,0.6875c-0.40625,0.13672 -0.74609,0.28125 -1.0625,0.5c-0.31641,0.21875 -0.71875,0.60547 -0.71875,1.21875v1.375l-6.75,-3.375zM25,21c3.8125,0 7.28125,0.21094 9.75,0.5625c1.23438,0.17578 2.20703,0.39063 2.8125,0.59375c0.22266,0.07422 0.33984,0.13672 0.4375,0.1875v4.875c-0.78516,-0.24609 -1.76953,-0.45312 -2.96875,-0.625c-2.60547,-0.37109 -6.125,-0.59375 -10.03125,-0.59375c-3.90625,0 -7.42578,0.22266 -10.03125,0.59375c-1.19922,0.17188 -2.18359,0.37891 -2.96875,0.625v-4.875c0.09766,-0.05078 0.21484,-0.11328 0.4375,-0.1875c0.60547,-0.20312 1.57813,-0.41797 2.8125,-0.59375c2.46875,-0.35156 5.9375,-0.5625 9.75,-0.5625zM25,28c3.82813,0 7.28516,0.21094 9.75,0.5625c0.90625,0.12891 1.50781,0.28516 2.09375,0.4375c-0.58594,0.15234 -1.1875,0.30859 -2.09375,0.4375c-2.46484,0.35156 -5.92187,0.5625 -9.75,0.5625c-3.82812,0 -7.28516,-0.21094 -9.75,-0.5625c-0.90625,-0.12891 -1.50781,-0.28516 -2.09375,-0.4375c0.58594,-0.15234 1.1875,-0.30859 2.09375,-0.4375c2.46484,-0.35156 5.92188,-0.5625 9.75,-0.5625zM5,39c0.55469,0 1,0.44531 1,1c0,-0.02734 -0.05469,0.31641 -0.21875,0.6875c-0.16406,0.37109 -0.41797,0.80859 -0.65625,1.21875c-0.06641,0.11719 -0.05859,0.10938 -0.125,0.21875c-0.06641,-0.10937 -0.05859,-0.10156 -0.125,-0.21875c-0.23828,-0.41016 -0.49219,-0.84766 -0.65625,-1.21875c-0.16406,-0.37109 -0.21875,-0.71484 -0.21875,-0.6875c0,-0.55469 0.44531,-1 1,-1z"></path></g></g></svg>