<svg xmlns="http://www.w3.org/2000/svg" xmlns:xlink="http://www.w3.org/1999/xlink" viewBox="0,0,256,256" width="30px" height="30px" fill-rule="nonzero"><g fill="#525252" fill-rule="nonzero" stroke="none" stroke-width="1" stroke-linecap="butt" stroke-linejoin="miter" stroke-miterlimit="10" stroke-dasharray="" stroke-dashoffset="0" font-family="none" font-weight="none" font-size="none" text-anchor="none" style="mix-blend-mode: normal"><g transform="scale(8.53333,8.53333)"><path d="M15,1c-0.552,0 -1,0.448 -1,1v4h2v-4c0,-0.552 -0.448,-1 -1,-1zM16,6v12.58594l2.29297,-2.29297c0.391,-0.391 1.02306,-0.391 1.41406,0c0.391,0.391 0.391,1.02306 0,1.41406l-4,4c-0.195,0.195 -0.45103,0.29297 -0.70703,0.29297c-0.256,0 -0.51203,-0.09797 -0.70703,-0.29297l-4,-4c-0.391,-0.391 -0.391,-1.02306 0,-1.41406c0.391,-0.391 1.02306,-0.391 1.41406,0l2.29297,2.29297v-12.58594h-8c-1.105,0 -2,0.895 -2,2v17c0,1.105 0.895,2 2,2h18c1.105,0 2,-0.895 2,-2v-17c0,-1.105 -0.895,-2 -2,-2z"></path></g></g></svg>