<svg xmlns="http://www.w3.org/2000/svg" xmlns:xlink="http://www.w3.org/1999/xlink" viewBox="0,0,256,256" width="24px" height="24px" fill-rule="nonzero"><g fill="#525252" fill-rule="nonzero" stroke="none" stroke-width="1" stroke-linecap="butt" stroke-linejoin="miter" stroke-miterlimit="10" stroke-dasharray="" stroke-dashoffset="0" font-family="none" font-weight="none" font-size="none" text-anchor="none" style="mix-blend-mode: normal"><g transform="scale(10.66667,10.66667)"><path d="M5,3c-1.64497,0 -3,1.35503 -3,3v1.84961c-0.01419,0.09649 -0.01419,0.19453 0,0.29102v7.85938c0,0.76564 0.30154,1.46152 0.78125,1.99414l-0.03125,0.00586c0,0 1.71139,2.10572 2.65039,3.26172c0.38,0.468 0.94878,0.73828 1.55078,0.73828h13.04883c0.53,0 1.03906,-0.21094 1.41406,-0.58594c0.375,-0.375 0.58594,-0.88406 0.58594,-1.41406v-12.47656c0,-0.343 -0.08881,-0.67952 -0.25781,-0.97852c-0.419,-0.745 -1.20313,-2.14258 -1.20313,-2.14258l-0.00195,0.02344c-0.53223,-0.85012 -1.46968,-1.42578 -2.53711,-1.42578zM5,5h13c0.56503,0 1,0.43497 1,1v1.33008l-7.5,3.08789l-7.5,-3.08789v-1.33008c0,-0.56503 0.43497,-1 1,-1zM4,9.49219l7.11914,2.93164c0.24397,0.10048 0.51775,0.10048 0.76172,0l7.11914,-2.93164v6.50781c0,0.56503 -0.43497,1 -1,1h-13c-0.56503,0 -1,-0.43497 -1,-1z"></path></g></g></svg>