<svg xmlns="http://www.w3.org/2000/svg" xmlns:xlink="http://www.w3.org/1999/xlink" viewBox="0,0,256,256" width="50px" height="50px" fill-rule="nonzero"><g fill="#f7f6f6" fill-rule="nonzero" stroke="none" stroke-width="1" stroke-linecap="butt" stroke-linejoin="miter" stroke-miterlimit="10" stroke-dasharray="" stroke-dashoffset="0" font-family="none" font-weight="none" font-size="none" text-anchor="none" style="mix-blend-mode: normal"><g transform="scale(10.66667,10.66667)"><path d="M4.00195,3c-1.103,0 -2,0.897 -2,2v12c0,1.103 0.897,2 2,2h14l4,4l-0.01172,-18.00195c-0.001,-1.103 -0.898,-1.99805 -2,-1.99805zM4.00195,5h15.99023l0.00586,13.16992l-1.16797,-1.16992h-14.82812zM15.41016,6.01367v1.02539h-2.41016v1.3125h4.71484c0,2.53 -2.08984,4.07031 -2.08984,4.07031c0,0 -1.41992,-0.79434 -1.41992,-2.40234h-1.20508c0,1.968 1.25977,2.93359 1.25977,2.93359c0,0 -0.55677,0.70313 -1.25977,0.70313v1.34375c1.374,0 2.57031,-1.10937 2.57031,-1.10937c0,0 0.86045,1.10938 2.43945,1.10938v-1.34375c-0.596,0 -0.93945,-0.67383 -0.93945,-0.67383c0,0 1.92969,-1.77286 1.92969,-4.63086v-1.3125h-2.41016v-1.02539zM7.78906,7l-2.78906,8h1.64063l0.51953,-1.65625h2.68164l0.51758,1.65625h1.64063l-2.78906,-8zM8.5,9.03125l0.92969,3h-1.85937z"></path></g></g></svg>