<svg xmlns="http://www.w3.org/2000/svg" xmlns:xlink="http://www.w3.org/1999/xlink" viewBox="0,0,256,256" width="50px" height="50px" fill-rule="nonzero"><g fill="#f7f6f6" fill-rule="nonzero" stroke="none" stroke-width="1" stroke-linecap="butt" stroke-linejoin="miter" stroke-miterlimit="10" stroke-dasharray="" stroke-dashoffset="0" font-family="none" font-weight="none" font-size="none" text-anchor="none" style="mix-blend-mode: normal"><g transform="scale(5.12,5.12)"><path d="M5,2c-2.74952,0 -5,2.25048 -5,5v24c0,2.74952 2.25048,5 5,5h37v-30h-32.20312c-0.47965,-2.25819 -2.40141,-4 -4.79687,-4zM5,4c1.66848,0 3,1.33152 3,3v20.0293c-0.83906,-0.63655 -1.87206,-1.0293 -3,-1.0293c-1.12794,0 -2.16094,0.39275 -3,1.0293v-20.0293c0,-1.66848 1.33152,-3 3,-3zM10,8h30v26h-35c-1.66848,0 -3,-1.33152 -3,-3c0,-1.66848 1.33152,-3 3,-3c1.66848,0 3,1.33152 3,3h2zM44,10c-0.36064,-0.0051 -0.69608,0.18438 -0.87789,0.49587c-0.18181,0.3115 -0.18181,0.69676 0,1.00825c0.18181,0.3115 0.51725,0.50097 0.87789,0.49587v26h-35c-0.75212,0 -1.42415,-0.28236 -1.96094,-0.75195c-0.26772,-0.24226 -0.64524,-0.32141 -0.98772,-0.20708c-0.34248,0.11433 -0.59675,0.40438 -0.66526,0.75888c-0.06851,0.3545 0.05939,0.71841 0.33462,0.95211c0.86921,0.7604 2.01741,1.24805 3.2793,1.24805h37v-30zM29,13l2.23633,2.23633l-5.23047,4.94727l-5,-5.25l-7.05859,6.67188l1.375,1.45508l5.60937,-5.30469l5,5.25l6.7207,-6.35352l2.34766,2.34766v-6zM48,14c-0.36064,-0.0051 -0.69608,0.18438 -0.87789,0.49587c-0.18181,0.3115 -0.18181,0.69676 0,1.00825c0.18181,0.3115 0.51725,0.50097 0.87789,0.49587v26h-35c-0.75212,0 -1.42415,-0.28236 -1.96094,-0.75195c-0.26772,-0.24227 -0.64524,-0.32142 -0.98772,-0.20709c-0.34249,0.11433 -0.59675,0.40438 -0.66526,0.75889c-0.06851,0.35451 0.05939,0.71841 0.33462,0.95211c0.86921,0.7604 2.01741,1.24805 3.2793,1.24805h37v-30zM14,27v2h21v-2z"></path></g></g></svg>